<svg id="Layer_1" height="512" viewBox="0 0 512 512" fill="#FFFFFF" width="512" xmlns="http://www.w3.org/2000/svg" data-name="Layer 1"><path d="m100 282h52v28h-52z"/><path d="m234.164 38-30.213 31h94.286l30.951-31z"/><path d="m154.727 241h-95.06l-30.95 31h95.06z"/><path d="m438.389 38h-95.06l-30.95 31h95.059z"/><path d="m145.344 439.28a5.113 5.113 0 0 1 -3.61-1.5l-6.131-6.249-6.046 6.231a5.009 5.009 0 0 1 -7.182 0l-6.053-6.231-6.145 6.249a5.1 5.1 0 0 1 -7.282-.058l-.895-.822v37.1h48v-37.1l-.925.822a5.335 5.335 0 0 1 -3.731 1.558z"/><path d="m275 79h51v27h-51z"/><path d="m445 44.662-30 30.951v188.446l30-30.951z"/><path d="m186 241h-17.132l-30.95 31h48.082z"/><path d="m381 314.616c0 2.762-2.151 5.384-4.912 5.384h-61.525c-2.761 0-4.563-2.622-4.563-5.384v-32.616h-69v192h71v-49.628a4.85 4.85 0 0 1 2.94-4.667 4.668 4.668 0 0 1 5.273 1.178l5.838 6.1 6.09-6.3a5.2 5.2 0 0 1 3.57-1.685h.013a5.179 5.179 0 0 1 3.575 1.7l6.026 6.4 6.026-6.211a5 5 0 0 1 3.574-1.518 4.9 4.9 0 0 1 3.58 1.5l6.087 6.209 5.83-6.15a4.966 4.966 0 0 1 8.578 3.444v49.628h70v-192h-68z"/><path d="m364.7 439.28a5.106 5.106 0 0 1 -3.61-1.5l-6.129-6.249-6.044 6.231a4.991 4.991 0 0 1 -7.167 0l-6.032-6.231-6.105 6.249a4.94 4.94 0 0 1 -3.559 1.5 4.768 4.768 0 0 1 -3.481-1.557l-.573-.823v37.1h47v-37.1l-.747.822a4.927 4.927 0 0 1 -3.553 1.558z"/><path d="m459 467.337 31-30.95v-188.446l-31 30.95z"/><path d="m324 233.623-.694.821a4.81 4.81 0 0 1 -3.5 1.558 5.194 5.194 0 0 1 -3.611-1.5l-6.13-6.249-6.045 6.23a5 5 0 0 1 -7.177 0l-6.046-6.231-6.13 6.249a5 5 0 0 1 -3.567 1.499h-.041a4.618 4.618 0 0 1 -3.432-1.557l-.625-.82v38.377h47z"/><path d="m451.84 241-30.95 31h31.443l30.95-31z"/><path d="m405 79h-69v32.338a4.559 4.559 0 0 1 -4.806 4.662h-61.526a4.447 4.447 0 0 1 -4.668-4.662v-32.338h-69v193h71v-50.906a4.872 4.872 0 0 1 2.993-4.65 4.753 4.753 0 0 1 5.325 1.2l5.839 6.138 6.09-6.232a5.047 5.047 0 0 1 3.57-1.546h.013a5.031 5.031 0 0 1 3.574 1.564l6.026 6.258 6.025-6.211a5 5 0 0 1 3.572-1.517 4.937 4.937 0 0 1 3.578 1.5l6.079 6.209 5.817-6.151a4.909 4.909 0 0 1 8.5 3.443v50.901h71z"/><path d="m320 282h51v28h-51z"/><path d="m162 314.616a5.574 5.574 0 0 1 -5.267 5.384h-61.525a5.521 5.521 0 0 1 -5.208-5.384v-32.616h-68v192h70v-49.628a5.173 5.173 0 0 1 8.857-3.489l5.839 6.1 6.09-6.3a5.2 5.2 0 0 1 3.57-1.685h.013a5.181 5.181 0 0 1 3.576 1.7l6.027 6.4 6.028-6.208a5.011 5.011 0 0 1 3.579-1.518 4.942 4.942 0 0 1 3.592 1.5l6.109 6.209 5.875-6.15a5.16 5.16 0 0 1 8.845 3.441v49.628h71v-192h-69zm-113 79.442a5 5 0 0 1 -10 0v-66a5 5 0 0 1 10 0zm0-85a5 5 0 0 1 -10 0v-6.3a5 5 0 0 1 10 0z"/></svg>